<svg xmlns="http://www.w3.org/2000/svg" xmlns:xlink="http://www.w3.org/1999/xlink" width="1080" zoomAndPan="magnify" viewBox="0 0 810 1012.49997" height="1350" preserveAspectRatio="xMidYMid meet" version="1.0"><defs><g/><clipPath id="51fe9ef44a"><path d="M 0.199219 0 L 809.800781 0 L 809.800781 1012 L 0.199219 1012 Z M 0.199219 0 " clip-rule="nonzero"/></clipPath><clipPath id="f7ae97a3af"><path d="M 159.902344 54.402344 L 230.59375 54.402344 L 230.59375 125.09375 L 159.902344 125.09375 Z M 159.902344 54.402344 " clip-rule="nonzero"/></clipPath><clipPath id="92ce828b49"><path d="M 195.246094 54.402344 C 175.726562 54.402344 159.902344 70.226562 159.902344 89.746094 C 159.902344 109.269531 175.726562 125.09375 195.246094 125.09375 C 214.769531 125.09375 230.59375 109.269531 230.59375 89.746094 C 230.59375 70.226562 214.769531 54.402344 195.246094 54.402344 Z M 195.246094 54.402344 " clip-rule="nonzero"/></clipPath><clipPath id="85c41865e8"><path d="M 0.902344 0.402344 L 71.59375 0.402344 L 71.59375 71.09375 L 0.902344 71.09375 Z M 0.902344 0.402344 " clip-rule="nonzero"/></clipPath><clipPath id="dfd5a97663"><path d="M 36.246094 0.402344 C 16.726562 0.402344 0.902344 16.226562 0.902344 35.746094 C 0.902344 55.269531 16.726562 71.09375 36.246094 71.09375 C 55.769531 71.09375 71.59375 55.269531 71.59375 35.746094 C 71.59375 16.226562 55.769531 0.402344 36.246094 0.402344 Z M 36.246094 0.402344 " clip-rule="nonzero"/></clipPath><clipPath id="706b3d0524"><rect x="0" width="72" y="0" height="72"/></clipPath><clipPath id="03a5caa432"><path d="M 0.0390625 0.75 L 633.566406 0.75 L 633.566406 159.3125 L 0.0390625 159.3125 Z M 0.0390625 0.75 " clip-rule="nonzero"/></clipPath><clipPath id="e3808a562e"><rect x="0" width="634" y="0" height="160"/></clipPath><clipPath id="89b00175d7"><path d="M 167.269531 70.441406 L 222.683594 70.441406 L 222.683594 109 L 167.269531 109 Z M 167.269531 70.441406 " clip-rule="nonzero"/></clipPath><clipPath id="9e47452591"><rect x="0" width="634" y="0" height="160"/></clipPath></defs><g clip-path="url(#51fe9ef44a)"><path fill="#ffffff" d="M 0.199219 0 L 809.800781 0 L 809.800781 1012 L 0.199219 1012 Z M 0.199219 0 " fill-opacity="1" fill-rule="nonzero"/><path fill="#ffffff" d="M 0.199219 0 L 809.800781 0 L 809.800781 1012 L 0.199219 1012 Z M 0.199219 0 " fill-opacity="1" fill-rule="nonzero"/></g><g transform="matrix(1, 0, 0, 1, 81, 426)"><g clip-path="url(#9e47452591)"><g clip-path="url(#f7ae97a3af)"><g clip-path="url(#92ce828b49)"><g transform="matrix(1, 0, 0, 1, 159, 54)"><g clip-path="url(#706b3d0524)"><g clip-path="url(#85c41865e8)"><g clip-path="url(#dfd5a97663)"><path fill="#ffffff" d="M 0.902344 0.402344 L 71.59375 0.402344 L 71.59375 71.09375 L 0.902344 71.09375 Z M 0.902344 0.402344 " fill-opacity="1" fill-rule="nonzero"/></g></g></g></g></g></g><g clip-path="url(#03a5caa432)"><g><g clip-path="url(#e3808a562e)"><g fill="#ffffff" fill-opacity="1"><g transform="translate(0.159927, 126.353484)"><g><path d="M 76.5 -45.90625 L 88.953125 -45.90625 L 88.953125 -10.5 C 84.460938 -6.78125 79.234375 -3.925781 73.265625 -1.9375 C 67.296875 0.0390625 61.070312 1.03125 54.59375 1.03125 C 45.425781 1.03125 37.164062 -0.972656 29.8125 -4.984375 C 22.46875 -9.003906 16.695312 -14.535156 12.5 -21.578125 C 8.3125 -28.628906 6.21875 -36.566406 6.21875 -45.390625 C 6.21875 -54.203125 8.3125 -62.148438 12.5 -69.234375 C 16.695312 -76.328125 22.488281 -81.863281 29.875 -85.84375 C 37.269531 -89.820312 45.59375 -91.8125 54.84375 -91.8125 C 62.113281 -91.8125 68.707031 -90.617188 74.625 -88.234375 C 80.550781 -85.859375 85.585938 -82.378906 89.734375 -77.796875 L 81.6875 -69.765625 C 74.425781 -76.765625 65.65625 -80.265625 55.375 -80.265625 C 48.457031 -80.265625 42.253906 -78.769531 36.765625 -75.78125 C 31.273438 -72.800781 26.972656 -68.65625 23.859375 -63.34375 C 20.742188 -58.03125 19.1875 -52.046875 19.1875 -45.390625 C 19.1875 -38.816406 20.742188 -32.867188 23.859375 -27.546875 C 26.972656 -22.234375 31.273438 -18.0625 36.765625 -15.03125 C 42.253906 -12.007812 48.410156 -10.5 55.234375 -10.5 C 63.359375 -10.5 70.445312 -12.445312 76.5 -16.34375 Z M 76.5 -45.90625 "/></g></g></g><g fill="#ffffff" fill-opacity="1"><g transform="translate(100.263717, 126.353484)"><g><path d="M 23.734375 -57.1875 C 25.890625 -61.164062 29.082031 -64.191406 33.3125 -66.265625 C 37.550781 -68.335938 42.695312 -69.375 48.75 -69.375 L 48.75 -57.3125 C 48.0625 -57.394531 47.113281 -57.4375 45.90625 -57.4375 C 39.164062 -57.4375 33.867188 -55.425781 30.015625 -51.40625 C 26.171875 -47.394531 24.25 -41.671875 24.25 -34.234375 L 24.25 0 L 11.796875 0 L 11.796875 -68.71875 L 23.734375 -68.71875 Z M 23.734375 -57.1875 "/></g></g></g><g fill="#ffffff" fill-opacity="1"><g transform="translate(153.42765, 126.353484)"><g><path d="M 41.234375 0.78125 C 34.398438 0.78125 28.257812 -0.726562 22.8125 -3.75 C 17.375 -6.78125 13.117188 -10.953125 10.046875 -16.265625 C 6.984375 -21.585938 5.453125 -27.617188 5.453125 -34.359375 C 5.453125 -41.109375 6.984375 -47.140625 10.046875 -52.453125 C 13.117188 -57.765625 17.375 -61.910156 22.8125 -64.890625 C 28.257812 -67.878906 34.398438 -69.375 41.234375 -69.375 C 48.066406 -69.375 54.179688 -67.878906 59.578125 -64.890625 C 64.984375 -61.910156 69.21875 -57.765625 72.28125 -52.453125 C 75.351562 -47.140625 76.890625 -41.109375 76.890625 -34.359375 C 76.890625 -27.617188 75.351562 -21.585938 72.28125 -16.265625 C 69.21875 -10.953125 64.984375 -6.78125 59.578125 -3.75 C 54.179688 -0.726562 48.066406 0.78125 41.234375 0.78125 Z M 41.234375 -10.109375 C 45.640625 -10.109375 49.59375 -11.125 53.09375 -13.15625 C 56.601562 -15.1875 59.347656 -18.039062 61.328125 -21.71875 C 63.316406 -25.394531 64.3125 -29.609375 64.3125 -34.359375 C 64.3125 -39.117188 63.316406 -43.332031 61.328125 -47 C 59.347656 -50.675781 56.601562 -53.507812 53.09375 -55.5 C 49.59375 -57.488281 45.640625 -58.484375 41.234375 -58.484375 C 36.828125 -58.484375 32.875 -57.488281 29.375 -55.5 C 25.875 -53.507812 23.109375 -50.675781 21.078125 -47 C 19.046875 -43.332031 18.03125 -39.117188 18.03125 -34.359375 C 18.03125 -29.609375 19.046875 -25.394531 21.078125 -21.71875 C 23.109375 -18.039062 25.875 -15.1875 29.375 -13.15625 C 32.875 -11.125 36.828125 -10.109375 41.234375 -10.109375 Z M 41.234375 -10.109375 "/></g></g></g><g fill="#ffffff" fill-opacity="1"><g transform="translate(235.766893, 126.353484)"><g><path d="M 115.796875 -68.71875 L 90.125 0 L 78.1875 0 L 58.359375 -52.125 L 38.25 0 L 26.328125 0 L 0.78125 -68.71875 L 12.578125 -68.71875 L 32.546875 -14 L 53.296875 -68.71875 L 63.796875 -68.71875 L 84.15625 -13.75 L 104.640625 -68.71875 Z M 115.796875 -68.71875 "/></g></g></g><g fill="#ffffff" fill-opacity="1"><g transform="translate(352.338538, 126.353484)"><g><path d="M 31.515625 0.78125 C 25.890625 0.78125 20.484375 0.0234375 15.296875 -1.484375 C 10.109375 -3.003906 6.046875 -4.929688 3.109375 -7.265625 L 8.296875 -17.109375 C 11.328125 -14.953125 15.003906 -13.222656 19.328125 -11.921875 C 23.648438 -10.628906 28.015625 -9.984375 32.421875 -9.984375 C 43.304688 -9.984375 48.75 -13.097656 48.75 -19.328125 C 48.75 -21.398438 48.015625 -23.039062 46.546875 -24.25 C 45.078125 -25.457031 43.238281 -26.34375 41.03125 -26.90625 C 38.832031 -27.46875 35.703125 -28.09375 31.640625 -28.78125 C 26.109375 -29.644531 21.59375 -30.640625 18.09375 -31.765625 C 14.59375 -32.890625 11.585938 -34.789062 9.078125 -37.46875 C 6.566406 -40.15625 5.3125 -43.914062 5.3125 -48.75 C 5.3125 -54.976562 7.90625 -59.972656 13.09375 -63.734375 C 18.28125 -67.492188 25.238281 -69.375 33.96875 -69.375 C 38.550781 -69.375 43.132812 -68.8125 47.71875 -67.6875 C 52.300781 -66.5625 56.0625 -65.050781 59 -63.15625 L 53.6875 -53.296875 C 48.0625 -56.921875 41.445312 -58.734375 33.84375 -58.734375 C 28.570312 -58.734375 24.550781 -57.867188 21.78125 -56.140625 C 19.019531 -54.410156 17.640625 -52.125 17.640625 -49.28125 C 17.640625 -47.03125 18.414062 -45.253906 19.96875 -43.953125 C 21.519531 -42.660156 23.441406 -41.710938 25.734375 -41.109375 C 28.023438 -40.503906 31.25 -39.8125 35.40625 -39.03125 C 40.9375 -38.082031 45.40625 -37.066406 48.8125 -35.984375 C 52.226562 -34.898438 55.144531 -33.0625 57.5625 -30.46875 C 59.988281 -27.875 61.203125 -24.242188 61.203125 -19.578125 C 61.203125 -13.359375 58.539062 -8.410156 53.21875 -4.734375 C 47.90625 -1.054688 40.671875 0.78125 31.515625 0.78125 Z M 31.515625 0.78125 "/></g></g></g><g fill="#ffffff" fill-opacity="1"><g transform="translate(417.302247, 126.353484)"><g><path d="M 50.4375 -4.015625 C 48.625 -2.460938 46.375 -1.273438 43.6875 -0.453125 C 41.007812 0.367188 38.25 0.78125 35.40625 0.78125 C 28.488281 0.78125 23.125 -1.078125 19.3125 -4.796875 C 15.507812 -8.515625 13.609375 -13.832031 13.609375 -20.75 L 13.609375 -58.484375 L 1.9375 -58.484375 L 1.9375 -68.71875 L 13.609375 -68.71875 L 13.609375 -83.765625 L 26.0625 -83.765625 L 26.0625 -68.71875 L 45.78125 -68.71875 L 45.78125 -58.484375 L 26.0625 -58.484375 L 26.0625 -21.265625 C 26.0625 -17.546875 26.988281 -14.691406 28.84375 -12.703125 C 30.707031 -10.710938 33.367188 -9.71875 36.828125 -9.71875 C 40.628906 -9.71875 43.867188 -10.800781 46.546875 -12.96875 Z M 50.4375 -4.015625 "/></g></g></g><g fill="#ffffff" fill-opacity="1"><g transform="translate(470.984891, 126.353484)"><g><path d="M 73.90625 -33.96875 C 73.90625 -33.019531 73.820312 -31.769531 73.65625 -30.21875 L 17.890625 -30.21875 C 18.671875 -24.164062 21.328125 -19.300781 25.859375 -15.625 C 30.398438 -11.945312 36.046875 -10.109375 42.796875 -10.109375 C 51.003906 -10.109375 57.613281 -12.875 62.625 -18.40625 L 69.5 -10.375 C 66.382812 -6.738281 62.515625 -3.96875 57.890625 -2.0625 C 53.273438 -0.164062 48.113281 0.78125 42.40625 0.78125 C 35.144531 0.78125 28.703125 -0.707031 23.078125 -3.6875 C 17.460938 -6.675781 13.117188 -10.847656 10.046875 -16.203125 C 6.984375 -21.566406 5.453125 -27.617188 5.453125 -34.359375 C 5.453125 -41.015625 6.941406 -47.019531 9.921875 -52.375 C 12.898438 -57.738281 17.003906 -61.910156 22.234375 -64.890625 C 27.460938 -67.878906 33.363281 -69.375 39.9375 -69.375 C 46.507812 -69.375 52.363281 -67.878906 57.5 -64.890625 C 62.644531 -61.910156 66.664062 -57.738281 69.5625 -52.375 C 72.457031 -47.019531 73.90625 -40.882812 73.90625 -33.96875 Z M 39.9375 -58.875 C 33.96875 -58.875 28.972656 -57.054688 24.953125 -53.421875 C 20.941406 -49.796875 18.585938 -45.039062 17.890625 -39.15625 L 61.984375 -39.15625 C 61.296875 -44.945312 58.941406 -49.679688 54.921875 -53.359375 C 50.898438 -57.035156 45.90625 -58.875 39.9375 -58.875 Z M 39.9375 -58.875 "/></g></g></g><g fill="#ffffff" fill-opacity="1"><g transform="translate(550.341772, 126.353484)"><g><path d="M 23.734375 -57.1875 C 25.890625 -61.164062 29.082031 -64.191406 33.3125 -66.265625 C 37.550781 -68.335938 42.695312 -69.375 48.75 -69.375 L 48.75 -57.3125 C 48.0625 -57.394531 47.113281 -57.4375 45.90625 -57.4375 C 39.164062 -57.4375 33.867188 -55.425781 30.015625 -51.40625 C 26.171875 -47.394531 24.25 -41.671875 24.25 -34.234375 L 24.25 0 L 11.796875 0 L 11.796875 -68.71875 L 23.734375 -68.71875 Z M 23.734375 -57.1875 "/></g></g></g><g fill="#ffffff" fill-opacity="1"><g transform="translate(603.50567, 126.353484)"><g><path d="M 14.78125 0.78125 C 12.363281 0.78125 10.289062 -0.0625 8.5625 -1.75 C 6.832031 -3.4375 5.96875 -5.578125 5.96875 -8.171875 C 5.96875 -10.679688 6.832031 -12.773438 8.5625 -14.453125 C 10.289062 -16.140625 12.363281 -16.984375 14.78125 -16.984375 C 17.195312 -16.984375 19.226562 -16.160156 20.875 -14.515625 C 22.519531 -12.878906 23.34375 -10.765625 23.34375 -8.171875 C 23.34375 -5.578125 22.5 -3.4375 20.8125 -1.75 C 19.125 -0.0625 17.113281 0.78125 14.78125 0.78125 Z M 14.78125 0.78125 "/></g></g></g></g></g></g><g clip-path="url(#89b00175d7)"><path fill="#000000" d="M 221.3125 87.648438 C 220.988281 88.042969 220.425781 88.191406 219.957031 87.996094 C 219.417969 87.773438 219.113281 87.152344 219.273438 86.546875 C 219.390625 86.667969 219.644531 86.890625 220.027344 86.976562 C 220.832031 87.15625 221.457031 86.566406 221.515625 86.507812 C 221.527344 86.554688 221.710938 87.160156 221.3125 87.648438 Z M 213.757812 81.515625 C 213.652344 81.59375 212.886719 82.152344 211.917969 81.914062 C 211.195312 81.738281 210.792969 81.222656 210.671875 81.050781 C 210.480469 80.78125 210.335938 80.09375 210.335938 80.09375 C 210.335938 80.09375 211.25 79.484375 212.207031 79.375 C 212.652344 79.324219 212.929688 79.339844 213.199219 79.503906 C 213.714844 79.816406 213.921875 80.605469 213.757812 81.515625 Z M 223.03125 85.351562 C 222.902344 84.433594 222.496094 83.703125 221.695312 82.28125 C 220.773438 80.652344 219.933594 79.523438 219.667969 79.164062 C 216.695312 75.148438 216.746094 74.476562 216.03125 73.71875 C 216.171875 73.824219 216.296875 73.925781 216.398438 74.011719 C 216.542969 74.109375 216.675781 74.253906 216.792969 74.382812 C 217.273438 74.902344 217.574219 75.585938 217.9375 76.1875 C 218.046875 76.367188 218.15625 76.550781 218.269531 76.730469 C 218.65625 76.347656 218.730469 75.855469 219.0625 74.347656 C 219.625 71.816406 219.839844 71.261719 219.496094 70.945312 C 219.210938 70.683594 218.714844 70.738281 217.9375 70.96875 C 217.105469 71.214844 215.917969 71.679688 214.546875 72.617188 C 211.933594 71.195312 208.828125 71.6875 207.550781 71.886719 C 207.253906 71.933594 206.980469 71.988281 206.722656 72.050781 C 206.050781 71.625 205.441406 71.347656 204.96875 71.160156 C 203.914062 70.75 203.195312 70.480469 202.453125 70.777344 C 201.46875 71.171875 201.105469 72.292969 200.917969 72.886719 C 200.496094 74.199219 200.742188 75.40625 201.058594 76.238281 C 200.835938 76.152344 200.632812 76.078125 200.445312 76.011719 C 200.324219 75.644531 200.222656 75.222656 200.179688 74.757812 C 200.015625 74.808594 199.847656 74.859375 199.671875 74.90625 C 199.109375 75.066406 198.5625 75.191406 198.039062 75.296875 C 188.628906 73.078125 180.785156 77.808594 178.792969 79.117188 C 176.824219 80.414062 173.464844 82.625 171.503906 86.789062 C 170.359375 89.222656 169.234375 93.296875 169.492188 97.816406 C 169.660156 100.796875 170.390625 103.199219 168.917969 105.582031 C 168.515625 106.230469 168.035156 106.742188 167.5625 107.140625 C 167.269531 107.390625 167.4375 107.875 167.824219 107.882812 C 167.824219 107.882812 167.828125 107.882812 167.832031 107.882812 C 168.390625 107.886719 168.945312 107.894531 169.503906 107.90625 C 170.8125 107.929688 172.117188 107.964844 173.425781 107.996094 C 178.007812 108.105469 181.945312 108.519531 186.445312 107.636719 C 184.324219 106.617188 182.871094 105.378906 182.039062 104.765625 C 184.019531 105.914062 188.332031 108.140625 191.074219 108.546875 C 194.089844 108.996094 197.625 108.695312 197.773438 107.855469 C 197.855469 107.382812 196.800781 107.0625 195.371094 105.921875 C 197.65625 105.972656 200.617188 106.035156 201.613281 105.785156 C 202.835938 106.324219 204.320312 106.816406 206.039062 107.074219 C 209.03125 107.519531 212.535156 107.21875 212.683594 106.386719 C 212.769531 105.878906 211.539062 105.546875 209.941406 104.175781 C 208.914062 103.292969 208.164062 102.34375 207.609375 101.484375 C 208.835938 100.316406 210.003906 99.035156 210.960938 97.648438 C 211.011719 97.574219 211.058594 97.503906 211.105469 97.433594 C 211.113281 97.417969 211.121094 97.40625 211.128906 97.390625 C 212.226562 96.316406 213.320312 95.238281 214.414062 94.164062 C 215.046875 94.121094 217.761719 93.871094 219.300781 91.589844 C 219.527344 91.246094 219.769531 90.984375 219.945312 90.691406 C 219.808594 90.765625 219.671875 90.835938 219.527344 90.878906 C 219.167969 90.988281 219.046875 90.925781 218.675781 90.863281 C 218.488281 90.832031 218.253906 90.75 218.070312 90.804688 C 217.882812 90.859375 217.707031 90.9375 217.511719 90.980469 C 217.136719 91.058594 216.613281 91.195312 216.234375 91.191406 C 215.851562 91.179688 215.304688 91.074219 214.988281 90.929688 C 215.363281 90.949219 215.734375 90.945312 216.101562 90.902344 C 216.464844 90.867188 216.824219 90.792969 217.171875 90.691406 C 217.347656 90.640625 217.519531 90.582031 217.6875 90.515625 C 217.855469 90.449219 218.019531 90.371094 218.179688 90.289062 C 218.503906 90.128906 218.808594 89.933594 219.089844 89.710938 L 219.09375 89.710938 C 219.148438 89.664062 219.226562 89.65625 219.292969 89.691406 C 219.609375 89.859375 219.9375 89.996094 220.273438 90.113281 C 220.398438 90.15625 220.523438 90.195312 220.652344 90.230469 C 220.949219 90.132812 221.28125 89.953125 221.648438 89.707031 C 223.042969 88.769531 223.210938 86.628906 223.03125 85.351562 " fill-opacity="1" fill-rule="nonzero"/></g></g></g></svg>